<svg xmlns="http://www.w3.org/2000/svg" width="256" height="256"><path fill-opacity=".016" d="M0 128.004v128.004l128.25-.254 128.25-.254.254-127.75L257.008 0H0v128.004m.485.496c0 70.4.119 99.053.265 63.672.146-35.38.146-92.98 0-128C.604 29.153.485 58.1.485 128.5" fill="#1976D2" fill-rule="evenodd"/><path fill-opacity=".115" d="M24.324 67.439C15.849 70.09 7.528 77.33 2.821 86.151.515 90.472.5 90.733.5 127v36.5l2.468 5c5.021 10.172 16.845 18.98 27.11 20.196l4.922.583v-12.042l-4.412-1.111c-6.005-1.512-12.621-6.733-15.338-12.102-2.193-4.335-2.25-5.254-2.25-36.269V95.934l2.466-4.866c3.139-6.196 8.51-10.623 14.685-12.104L35 77.801V66l-3.25.067c-1.788.037-5.129.654-7.426 1.372M43 71.696v5.976l5.881 1.635c4.836 1.345 6.692 2.537 10.437 6.702 6.458 7.182 6.884 10.118 6.501 44.731-.302 27.235-.433 28.972-2.477 32.76-3.633 6.732-9.765 11.381-17.092 12.959-3.231.696-3.25.734-3.25 6.751v6.05l4.356-.491c10.481-1.181 22.558-9.82 27.338-19.555L77.5 163.5l.298-35.306.298-35.305-2.478-5.413C70.45 76.189 59.133 67.385 48.363 66.274L43 65.72v5.976m57 55.804V188h13V67h-13v60.5m20.2-54.75l.3 5.75 14.5.5c16.677.575 19.863 1.733 23.389 8.5 2.822 5.418 3.393 16.631 1.184 23.281-3.187 9.596-9.152 12.219-27.782 12.219H119.9l.3 5.75.3 5.75 11.5.297c29.457.76 39.889-6.742 41.691-29.981 1.071-13.822-2.188-24.419-9.559-31.078C158.15 68.334 152.338 67 134.769 67H119.9l.3 5.75M192 127.5V188h64v-12h-51v-42h35v-12h-35V79h51V67h-64v60.5" fill="#1976D2" fill-rule="evenodd"/><path fill-opacity=".153" d="M25.929 67.367C16.064 70.027 8.353 76.593 2.871 87 .509 91.482.5 91.634.5 126c0 40.059.201 41.229 8.663 50.487 5.26 5.756 14.2 10.877 21.087 12.08l3.75.656v-11.808l-4.291-1.148c-4.834-1.293-12.874-7.848-15.493-12.632-1.522-2.781-1.716-6.809-1.716-35.635 0-31.471.069-32.629 2.178-36.568 3.062-5.721 9.517-11.224 14.832-12.646L34 77.585v-5.792c0-6.53-.088-6.578-8.071-4.426M44 72c0 5.039.28 6.004 1.75 6.022 2.581.032 10.393 3.774 13.132 6.29 1.311 1.203 3.444 4.438 4.741 7.188 2.318 4.916 2.358 5.519 2.367 36.054l.01 31.053-2.573 5.164c-2.958 5.935-8.844 10.781-15.177 12.494l-4.25 1.15v11.808l3.75-.672c6.235-1.117 15.8-6.101 20.253-10.554 2.311-2.311 5.393-6.743 6.849-9.849L77.5 162.5V127c0-35.477-.002-35.503-2.383-40-5.503-10.392-12.522-16.558-22.077-19.395C44.207 64.981 44 65.082 44 72m57 55.5V188h11V67h-11v60.5m20-55.116v5.384l13.25.438c15.268.505 19.046 1.695 23.368 7.358 2.587 3.389 2.918 4.69 3.235 12.693.403 10.202-1.18 15.818-5.621 19.937-4.174 3.872-8.428 4.806-21.881 4.806H121v11.202l16.75-.361c16.257-.35 16.903-.445 21.958-3.237 5.788-3.196 9.764-8.197 11.735-14.757 5.242-17.444 1.037-36.351-9.677-43.511C155.498 68.147 149.519 67 133.951 67H121v5.384m72 55.116V188h63.1l-.3-5.75-.3-5.75-25.5-.265-25.5-.266.289-20.984.288-20.985H239v-12h-33.924l-.288-21.485-.288-21.484 25.5-.266 25.5-.265.3-5.75.3-5.75H193v60.5" fill="#1976D2" fill-rule="evenodd"/><path fill-opacity=".208" d="M20.5 69.884C13.705 73.149 7.274 79.368 3.834 86c-2.297 4.429-2.338 5.051-2.62 39.616-.277 34.048-.219 35.294 1.904 40.969 3.896 10.414 15.856 19.981 26.473 21.178l4.409.497v-5.63c0-5.204-.174-5.63-2.294-5.63-3.708 0-12.881-6.147-16.167-10.834l-3.039-4.334-.301-32.406c-.279-30.011-.162-32.721 1.592-36.666C17.478 84.463 25.214 78 31.46 78c2.412 0 2.54-.277 2.54-5.5V67l-3.75.001c-2.077 0-6.427 1.287-9.75 2.883M44 72.5c0 5.031.192 5.502 2.25 5.522 6.635.065 16.62 8.406 18.752 15.666.755 2.57 1.019 14.266.809 35.887L65.5 161.65l-2.769 4.183c-3.534 5.337-9.998 10.026-14.903 10.81l-3.828.613V188h3.366c5.277 0 16.863-6.348 21.987-12.047 7.468-8.307 7.647-9.452 7.647-48.971V92.319l-3.051-6.106C68.51 75.33 56.966 67 47.322 67H44v5.5m57 55V188h11V67h-11v60.5m20-55.076v5.425l13.75.325c16.409.389 20.219 1.789 24.25 8.91 2.124 3.752 2.5 5.694 2.5 12.916 0 10.777-2.825 17.286-9 20.734-3.593 2.006-5.399 2.235-17.75 2.25L121 123v11.21l15.75-.391c17.143-.426 22.533-1.846 28.427-7.49 6.92-6.627 9.999-25.387 6.368-38.802-4.141-15.295-14.237-20.501-39.795-20.519L121 67v5.424m72 55.076V188h62v-11h-51v-44h35v-11h-35.039l.269-21.75.27-21.75 25.25-.267 25.25-.267V67h-62v60.5" fill="#1976D2" fill-rule="evenodd"/></svg>